<?xml version="1.0" standalone="no"?>
<!DOCTYPE svg PUBLIC "-//W3C//DTD SVG 20010904//EN"
 "http://www.w3.org/TR/2001/REC-SVG-20010904/DTD/svg10.dtd">
<svg version="1.0" xmlns="http://www.w3.org/2000/svg"
 width="700.000000pt" height="700.000000pt" viewBox="0 0 700.000000 700.000000"
 preserveAspectRatio="xMidYMid meet">
<metadata>
Created by potrace 1.14, written by Peter Selinger 2001-2017
</metadata>
<g transform="translate(0.000000,700.000000) scale(0.100000,-0.100000)"
fill="#000000" stroke="none">
<path d="M3297 6774 c-1 -1 -40 -4 -87 -8 -136 -10 -224 -22 -435 -60 -70 -13
-307 -80 -408 -115 -91 -32 -228 -91 -291 -126 -23 -12 -77 -42 -121 -65 -156
-84 -428 -261 -538 -349 -162 -131 -423 -413 -584 -631 -190 -258 -319 -497
-354 -657 -7 -32 -28 -86 -46 -119 -79 -146 -151 -398 -178 -629 -4 -27 -8
-61 -11 -75 -26 -159 -26 -687 1 -870 2 -14 6 -41 9 -60 13 -96 19 -124 47
-239 36 -144 77 -269 121 -361 17 -36 45 -110 63 -165 104 -318 264 -602 481
-855 124 -145 392 -388 549 -499 193 -137 535 -333 724 -417 221 -97 515 -186
711 -214 41 -6 89 -13 105 -16 60 -9 305 -18 500 -19 202 0 322 8 404 26 24 5
56 11 70 13 62 9 224 49 350 87 420 128 836 330 1129 549 103 76 236 207 276
270 15 25 49 61 74 80 45 34 162 148 212 206 165 189 355 518 465 804 26 69
51 134 56 145 34 87 100 324 133 482 47 223 58 354 52 603 -8 284 -15 376 -42
553 -67 442 -213 839 -420 1148 -68 101 -85 123 -147 193 -15 17 -39 51 -52
76 -60 116 -241 323 -395 451 -79 66 -319 245 -430 320 -199 136 -407 254
-567 323 -200 85 -529 177 -722 201 -30 4 -63 9 -75 12 -18 5 -623 12 -629 7z
m283 -173 c106 -19 170 -34 170 -40 0 -4 -16 -30 -35 -58 -43 -64 -165 -281
-165 -294 0 -5 -8 -9 -17 -10 -80 -4 -392 -80 -598 -146 -216 -69 -486 -189
-648 -287 l-74 -45 -59 14 c-32 7 -75 16 -95 19 -20 3 -42 7 -50 10 -14 5 -38
8 -162 23 -34 4 -124 7 -199 8 -86 0 -138 4 -138 10 0 18 78 129 135 192 141
156 660 408 1065 517 114 31 275 64 345 72 27 3 57 7 65 10 8 3 59 8 115 11
55 3 101 6 102 7 7 7 187 -4 243 -13z m600 -86 c14 -2 41 -7 60 -10 123 -22
457 -122 568 -171 156 -69 533 -322 723 -486 196 -168 366 -394 354 -469 -2
-13 -6 -50 -10 -81 -6 -57 -37 -189 -55 -238 -5 -14 -14 -37 -19 -52 l-10 -26
-108 48 c-59 26 -130 55 -158 64 -27 9 -59 21 -70 26 -66 31 -393 111 -515
125 -25 3 -55 8 -67 10 -19 5 -69 10 -183 20 -14 1 -33 3 -42 3 -9 1 -48 44
-86 95 -154 206 -260 319 -518 547 -45 40 -210 160 -274 200 -30 19 -57 35
-59 37 -7 5 21 63 76 156 127 216 133 220 273 213 52 -3 106 -8 120 -11z
m-2330 -888 c182 -31 280 -52 281 -61 1 -6 0 -54 -2 -106 -8 -257 1 -732 15
-820 2 -14 7 -54 11 -90 3 -36 8 -87 12 -114 l5 -49 -73 -71 c-98 -94 -192
-198 -282 -311 -27 -33 -55 -68 -63 -77 -72 -89 -293 -394 -413 -571 -58 -85
-44 -80 -160 -56 -153 30 -369 103 -493 165 -61 31 -68 37 -73 71 -4 21 -11
52 -15 68 -23 81 -44 288 -44 440 0 106 11 294 19 334 2 13 7 47 10 75 2 28 7
62 10 76 3 14 8 41 11 60 11 61 224 404 382 615 208 277 351 407 468 424 63 9
336 7 394 -2z m2925 -523 c106 -11 160 -18 215 -29 14 -3 39 -8 55 -10 17 -3
38 -8 47 -11 9 -3 25 -6 35 -8 149 -30 423 -126 573 -201 73 -37 81 -46 178
-225 149 -276 302 -744 337 -1035 14 -122 -196 -552 -412 -844 -86 -115 -110
-144 -198 -239 l-50 -54 -116 6 c-64 4 -127 9 -140 11 -13 2 -55 6 -94 10 -38
3 -83 8 -100 10 -16 2 -52 7 -80 10 -27 3 -63 8 -80 11 -16 3 -41 7 -55 8
-114 15 -418 73 -481 92 -11 3 -29 46 -54 122 -73 229 -245 705 -422 1165 -58
154 -63 171 -50 190 21 33 560 785 657 918 l85 116 45 -3 c25 -2 72 -6 105
-10z m-2325 -869 c246 -46 344 -64 405 -75 33 -5 71 -12 85 -15 28 -5 281 -52
320 -58 14 -3 114 -21 224 -42 109 -20 207 -37 217 -38 12 -1 24 -18 37 -52
315 -825 509 -1375 494 -1400 -7 -12 -40 -51 -196 -229 -166 -189 -274 -304
-523 -555 l-222 -224 -103 7 c-57 3 -114 8 -128 11 -14 3 -45 7 -69 10 -25 3
-54 8 -65 10 -12 3 -32 7 -46 9 -163 29 -445 103 -760 201 -189 58 -175 48
-259 200 -157 288 -325 719 -427 1094 l-23 86 37 55 c253 377 533 739 713 922
77 80 112 108 130 108 13 0 85 -11 159 -25z m-2037 -477 c9 -80 14 -112 38
-222 l19 -88 -25 -77 c-13 -42 -27 -94 -31 -116 -4 -22 -10 -47 -15 -55 -10
-19 -12 2 -14 280 -2 236 3 340 14 340 5 0 11 -28 14 -62z m6079 -350 c37 -11
72 -26 78 -33 24 -28 34 -268 16 -355 -3 -14 -10 -47 -16 -75 -5 -27 -11 -59
-14 -70 -91 -397 -223 -734 -403 -1033 -42 -70 -79 -129 -82 -132 -3 -3 -26
-32 -51 -65 -62 -82 -182 -207 -255 -265 -70 -56 -122 -72 -212 -68 l-61 3 30
85 c36 104 61 192 92 330 24 102 30 140 43 245 3 28 7 59 8 70 1 11 3 81 4
155 l2 135 64 70 c90 97 209 250 294 377 39 59 71 110 71 114 0 3 9 19 20 34
21 30 160 303 160 315 0 3 9 25 19 48 10 23 27 66 37 95 19 53 19 53 54 47 19
-3 65 -15 102 -27z m-4082 -1868 c155 -43 402 -101 485 -114 17 -2 49 -7 73
-11 79 -13 97 -14 202 -21 103 -6 106 -6 130 -37 179 -224 433 -496 580 -620
l55 -46 -40 -37 c-86 -79 -275 -185 -425 -239 -72 -26 -80 -27 -220 -21 -80 3
-156 7 -170 10 -14 2 -49 7 -79 10 -30 4 -64 9 -75 11 -12 3 -33 7 -48 10
-379 70 -746 229 -1048 453 -173 129 -389 390 -364 441 12 24 148 143 306 268
l127 101 168 -55 c92 -30 247 -76 343 -103z m3140 -396 c0 -14 -134 -120 -240
-191 -138 -91 -312 -183 -540 -286 -135 -60 -373 -144 -545 -191 -136 -37
-415 -91 -415 -80 0 1 17 13 38 25 56 35 146 105 203 159 40 39 59 49 97 55
98 14 312 67 437 109 254 85 513 210 700 336 l100 68 83 0 c45 0 82 -2 82 -4z"/>
</g>
</svg>
